<svg width="800" height="400" viewBox="0 0 800 400" fill="none" xmlns="http://www.w3.org/2000/svg">
  <rect width="800" height="400" rx="20" fill="#F5F5F7"/>
  
  <!-- Decorative Background Elements -->
  <circle cx="100" cy="100" r="60" fill="#2A5B5E" opacity="0.1"/>
  <circle cx="700" cy="300" r="80" fill="#C4A265" opacity="0.1"/>
  <path d="M60,350 Q120,300 70,250 T80,150" stroke="#2A5B5E" stroke-width="3" stroke-dasharray="6 6" opacity="0.3" fill="none"/>
  <path d="M700,50 Q650,100 690,150 T680,250" stroke="#C4A265" stroke-width="3" stroke-dasharray="6 6" opacity="0.3" fill="none"/>
  
  <!-- Central Content -->
  <rect x="250" y="100" width="300" height="200" rx="16" fill="white" filter="url(#shadow)"/>
  
  <!-- Quote Marks -->
  <path d="M300,140 L320,140 L320,160 L300,180 L300,140 Z" fill="#2A5B5E" opacity="0.2"/>
  <path d="M330,140 L350,140 L350,160 L330,180 L330,140 Z" fill="#2A5B5E" opacity="0.2"/>
  
  <!-- Text Placeholder -->
  <rect x="300" y="190" width="200" height="10" rx="5" fill="#EEEEEE"/>
  <rect x="300" y="210" width="180" height="10" rx="5" fill="#EEEEEE"/>
  <rect x="300" y="230" width="160" height="10" rx="5" fill="#EEEEEE"/>
  
  <!-- Author Placeholder -->
  <circle cx="315" cy="260" r="15" fill="#EEEEEE"/>
  <rect x="340" y="250" width="100" height="10" rx="5" fill="#EEEEEE"/>
  <rect x="340" y="265" width="70" height="8" rx="4" fill="#EEEEEE"/>
  
  <!-- Title -->
  <text x="400" y="350" font-family="Arial" font-size="18" font-weight="bold" fill="#2A5B5E" text-anchor="middle">What Our Customers Say</text>
  
  <defs>
    <filter id="shadow" x="240" y="95" width="320" height="220" filterUnits="userSpaceOnUse" color-interpolation-filters="sRGB">
      <feFlood flood-opacity="0" result="BackgroundImageFix"/>
      <feColorMatrix in="SourceAlpha" type="matrix" values="0 0 0 0 0 0 0 0 0 0 0 0 0 0 0 0 0 0 127 0"/>
      <feOffset dy="5"/>
      <feGaussianBlur stdDeviation="5"/>
      <feColorMatrix type="matrix" values="0 0 0 0 0 0 0 0 0 0 0 0 0 0 0 0 0 0 0.1 0"/>
      <feBlend mode="normal" in2="BackgroundImageFix" result="effect1_dropShadow"/>
      <feBlend mode="normal" in="SourceGraphic" in2="effect1_dropShadow" result="shape"/>
    </filter>
  </defs>
</svg> 