<svg xmlns="http://www.w3.org/2000/svg" width="800" height="600" viewBox="0 0 800 600">
  <rect width="800" height="600" fill="#966919"/>
  <text x="400" y="250" font-family="Arial" font-size="40" font-weight="bold" fill="white" text-anchor="middle">Vintage Elegance Collection</text>
  <text x="400" y="320" font-family="Arial" font-size="24" fill="white" text-anchor="middle">Timeless pieces inspired by classic jewelry designs</text>
  <g fill="white" transform="translate(350, 400) scale(0.12)">
    <path d="M399.9 80V32c0-17.7-14.3-32-32-32s-32 14.3-32 32V80c0 8.8-7.2 16-16 16s-16-7.2-16-16V32c0-17.7-14.3-32-32-32s-32 14.3-32 32V80c0 8.8-7.2 16-16 16s-16-7.2-16-16V32c0-17.7-14.3-32-32-32S144 14.3 144 32V80c0 8.8-7.2 16-16 16s-16-7.2-16-16V32c0-17.7-14.3-32-32-32S48 14.3 48 32v96c0 17.7 14.3 32 32 32H384c17.7 0 32-14.3 32-32V80c0-8.8-7.2-16-16-16s-16 7.2-16 16zM32 288c-17.7 0-32 14.3-32 32v64c0 17.7 14.3 32 32 32H96c17.7 0 32-14.3 32-32V320c0-17.7-14.3-32-32-32H32zm0 160c-17.7 0-32 14.3-32 32v64c0 17.7 14.3 32 32 32H96c17.7 0 32-14.3 32-32V480c0-17.7-14.3-32-32-32H32zm128 0c-17.7 0-32 14.3-32 32v64c0 17.7 14.3 32 32 32h64c17.7 0 32-14.3 32-32V480c0-17.7-14.3-32-32-32H160zm160 0c-17.7 0-32 14.3-32 32v64c0 17.7 14.3 32 32 32h64c17.7 0 32-14.3 32-32V480c0-17.7-14.3-32-32-32H320zM128 320c0-17.7 14.3-32 32-32h64c17.7 0 32 14.3 32 32v64c0 17.7-14.3 32-32 32H160c-17.7 0-32-14.3-32-32V320zm192 0c0-17.7 14.3-32 32-32h64c17.7 0 32 14.3 32 32v64c0 17.7-14.3 32-32 32H352c-17.7 0-32-14.3-32-32V320z"/>
  </g>
</svg> 