<svg xmlns="http://www.w3.org/2000/svg" viewBox="0 0 24 24" fill="none" stroke="currentColor" stroke-width="1.5" stroke-linecap="round" stroke-linejoin="round">
  <path d="M12 3L17 8.2M12 3L7 8.2M12 3V16M17 8.2H17.5C18.2956 8.2 19.0587 8.51607 19.6213 9.07868C20.1839 9.64129 20.5 10.4044 20.5 11.2V17.8C20.5 18.5956 20.1839 19.3587 19.6213 19.9213C19.0587 20.4839 18.2956 20.8 17.5 20.8H6.5C5.70435 20.8 4.94129 20.4839 4.37868 19.9213C3.81607 19.3587 3.5 18.5956 3.5 17.8V11.2C3.5 10.4044 3.81607 9.64129 4.37868 9.07868C4.94129 8.51607 5.70435 8.2 6.5 8.2H7L17 8.2Z" />
  <circle cx="12" cy="17" r="2" />
</svg> 