<svg width="800" height="600" viewBox="0 0 800 600" fill="none" xmlns="http://www.w3.org/2000/svg">
  <rect width="800" height="600" rx="20" fill="#F5F5F7"/>
  <g filter="url(#filter0_d)">
    <rect x="150" y="100" width="500" height="350" rx="16" fill="white"/>
    
    <!-- Browser Header -->
    <rect x="150" y="100" width="500" height="40" rx="16" fill="#2A5B5E" />
    <circle cx="180" cy="120" r="8" fill="#FF6B6B"/>
    <circle cx="210" cy="120" r="8" fill="#FFD93D"/>
    <circle cx="240" cy="120" r="8" fill="#6BCB77"/>
    
    <!-- Browser Content -->
    <rect x="170" y="160" width="460" height="270" rx="8" fill="#F9F9F9"/>
    
    <!-- Jewelry Display Grid -->
    <rect x="190" y="180" width="130" height="130" rx="8" fill="#FFFFFF" stroke="#2A5B5E" stroke-width="2"/>
    <rect x="340" y="180" width="130" height="130" rx="8" fill="#FFFFFF" stroke="#2A5B5E" stroke-width="2"/>
    <rect x="190" y="330" width="130" height="80" rx="8" fill="#FFFFFF" stroke="#2A5B5E" stroke-width="2"/>
    <rect x="340" y="330" width="130" height="80" rx="8" fill="#FFFFFF" stroke="#2A5B5E" stroke-width="2"/>
    
    <!-- Ring Icons -->
    <circle cx="255" cy="245" r="30" fill="#C4A265" opacity="0.8"/>
    <circle cx="255" cy="245" r="20" fill="white"/>
    
    <circle cx="405" cy="245" r="30" fill="#2A5B5E" opacity="0.8"/>
    <circle cx="405" cy="245" r="20" fill="white"/>
    
    <!-- Navigation Bar -->
    <rect x="490" y="180" width="120" height="230" rx="8" fill="#FFFFFF" stroke="#EEEEEE" stroke-width="2"/>
    <rect x="500" y="200" width="100" height="20" rx="4" fill="#2A5B5E"/>
    <rect x="500" y="240" width="100" height="10" rx="4" fill="#EEEEEE"/>
    <rect x="500" y="260" width="100" height="10" rx="4" fill="#EEEEEE"/>
    <rect x="500" y="280" width="100" height="10" rx="4" fill="#EEEEEE"/>
    <rect x="500" y="300" width="100" height="10" rx="4" fill="#EEEEEE"/>
    <rect x="500" y="340" width="100" height="30" rx="4" fill="#C4A265"/>
  </g>
  
  <!-- Decorative Elements -->
  <circle cx="100" cy="150" r="40" fill="#C4A265" opacity="0.1"/>
  <circle cx="700" cy="450" r="60" fill="#2A5B5E" opacity="0.1"/>
  <path d="M60,500 Q120,450 70,400 T80,300" stroke="#C4A265" stroke-width="3" stroke-dasharray="6 6" opacity="0.3" fill="none"/>
  <path d="M700,100 Q650,150 690,200 T680,300" stroke="#2A5B5E" stroke-width="3" stroke-dasharray="6 6" opacity="0.3" fill="none"/>
  
  <defs>
    <filter id="filter0_d" x="140" y="95" width="520" height="370" filterUnits="userSpaceOnUse" color-interpolation-filters="sRGB">
      <feFlood flood-opacity="0" result="BackgroundImageFix"/>
      <feColorMatrix in="SourceAlpha" type="matrix" values="0 0 0 0 0 0 0 0 0 0 0 0 0 0 0 0 0 0 127 0"/>
      <feOffset dy="5"/>
      <feGaussianBlur stdDeviation="5"/>
      <feColorMatrix type="matrix" values="0 0 0 0 0 0 0 0 0 0 0 0 0 0 0 0 0 0 0.1 0"/>
      <feBlend mode="normal" in2="BackgroundImageFix" result="effect1_dropShadow"/>
      <feBlend mode="normal" in="SourceGraphic" in2="effect1_dropShadow" result="shape"/>
    </filter>
  </defs>
</svg> 